<svg id="Group_1326" data-name="Group 1326" xmlns="http://www.w3.org/2000/svg" xmlns:xlink="http://www.w3.org/1999/xlink" width="274.185" height="135.93" viewBox="0 0 274.185 135.93" preserveAspectRatio="none">
  <defs>
    <clipPath id="clip-path">
      <rect id="Rectangle_350" data-name="Rectangle 350" width="274.185" height="135.93" fill="#CCFE01"/>
    </clipPath>
  </defs>
  <g id="Group_1257" data-name="Group 1257" clip-path="url(#clip-path)">
    <path id="Path_1319" data-name="Path 1319" d="M85.75,114.842c32.249-.888,172.121-5.8,184.149-46.854,2.757-11.256-6.1-22.168-11.675-28.557C213.407-9.7,123.751,6.139,71.5,24.163,50.9,31.632,30.069,40.023,11.432,54.57a20.51,20.51,0,0,0-5.071,6.114C-1.349,75.727,32.688,94.577,40.157,98.551A330.481,330.481,0,0,0,89.49,119.464a350.84,350.84,0,0,0,50.778,13.412,145.338,145.338,0,0,0,20.617,2.293l.007.562c-13.861.85-27.733-1.148-41.461-3.7-29.889-5.7-91.759-23.854-113.76-51.542C-2.441,69.9-1.871,58,7.519,49.334c7.149-6.308,15.051-10.8,22.8-15.054A311.348,311.348,0,0,1,152.724.335c36.2-1.785,81.37,2.606,110.047,37.1,6.041,7.534,13.023,17.9,11.085,30.313-3.673,20.324-30.588,28.789-43.333,32.883-33.974,9.808-68.722,12.5-103.288,14.2q-20.738.87-41.486.58l0-.562" transform="translate(0 0)" fill="#cf2e2e"/>
  </g>
</svg>
